<mxfile host="app.diagrams.net" agent="Mozilla/5.0 (X11; Linux x86_64; rv:131.0) Gecko/20100101 Firefox/131.0" version="24.8.3">
  <diagram name="Page-1" id="jL01Mo8gyEv-5rR43LAb">
    <mxGraphModel dx="1527" dy="712" grid="1" gridSize="10" guides="1" tooltips="1" connect="1" arrows="1" fold="1" page="0" pageScale="1" pageWidth="850" pageHeight="1100" math="0" shadow="0">
      <root>
        <mxCell id="0" />
        <mxCell id="1" parent="0" />
        <mxCell id="2" value="" style="rounded=0;whiteSpace=wrap;html=1;shadow=0;" parent="1" vertex="1">
          <mxGeometry x="1" y="265" width="723" height="300" as="geometry" />
        </mxCell>
        <mxCell id="3" value="" style="rounded=0;whiteSpace=wrap;html=1;perimeterSpacing=0;shadow=0;strokeColor=#000000;strokeWidth=2;fillColor=#B2B2B2;opacity=40;" parent="1" vertex="1">
          <mxGeometry x="201" y="324" width="190" height="173" as="geometry" />
        </mxCell>
        <mxCell id="4" value="" style="rounded=0;whiteSpace=wrap;html=1;shadow=0;" parent="1" vertex="1">
          <mxGeometry x="518" y="324" width="200" height="173" as="geometry" />
        </mxCell>
        <mxCell id="5" value="&amp;nbsp;&amp;nbsp;&amp;nbsp;&amp;nbsp;&amp;nbsp;&amp;nbsp;&amp;nbsp;&amp;nbsp;&amp;nbsp; &lt;u&gt;Database (MySQL)&lt;/u&gt;" style="rounded=0;whiteSpace=wrap;html=1;rotation=0;shadow=0;" parent="1" vertex="1">
          <mxGeometry x="518" y="283" width="200" height="25" as="geometry" />
        </mxCell>
        <mxCell id="6" value="&lt;u&gt;Web server (Apache)&lt;/u&gt;" style="text;html=1;align=center;verticalAlign=middle;resizable=0;points=[];autosize=1;strokeColor=none;fillColor=none;shadow=0;" parent="1" vertex="1">
          <mxGeometry x="529" y="321" width="140" height="30" as="geometry" />
        </mxCell>
        <mxCell id="7" value="" style="rounded=0;whiteSpace=wrap;html=1;shadow=0;strokeColor=#000000;strokeWidth=2;fillColor=#B2B2B2;opacity=40;" parent="1" vertex="1">
          <mxGeometry x="523" y="349" width="190" height="140" as="geometry" />
        </mxCell>
        <mxCell id="18" value="" style="edgeStyle=none;orthogonalLoop=1;jettySize=auto;html=1;rounded=0;startArrow=classic;startFill=1;endArrow=none;endFill=0;exitX=0.995;exitY=0.816;exitDx=0;exitDy=0;exitPerimeter=0;shadow=0;" parent="1" source="3" edge="1">
          <mxGeometry width="100" relative="1" as="geometry">
            <mxPoint x="400" y="452" as="sourcePoint" />
            <mxPoint x="518" y="466" as="targetPoint" />
            <Array as="points" />
          </mxGeometry>
        </mxCell>
        <mxCell id="8" value="PHP (Instrumented)" style="text;html=1;align=center;verticalAlign=middle;resizable=0;points=[];autosize=1;strokeColor=none;fillColor=none;shadow=0;" parent="1" vertex="1">
          <mxGeometry x="518" y="350" width="130" height="30" as="geometry" />
        </mxCell>
        <mxCell id="9" value="Target&lt;br&gt;(Web application)" style="rounded=0;whiteSpace=wrap;html=1;shadow=0;fillColor=#1F91CC;fontColor=#FFFFFF;" parent="1" vertex="1">
          <mxGeometry x="536" y="380.63" width="165" height="45" as="geometry" />
        </mxCell>
        <mxCell id="10" value="" style="rounded=0;whiteSpace=wrap;html=1;shadow=0;fillColor=#B2B2B2;opacity=40;" parent="1" vertex="1">
          <mxGeometry x="200" y="509" width="519" height="50" as="geometry" />
        </mxCell>
        <mxCell id="11" value="&lt;u&gt;Fuzzer 1 .. N&lt;/u&gt;" style="text;html=1;align=center;verticalAlign=middle;resizable=0;points=[];autosize=1;strokeColor=none;fillColor=none;shadow=0;" parent="1" vertex="1">
          <mxGeometry x="193" y="320" width="90" height="30" as="geometry" />
        </mxCell>
        <mxCell id="12" value="" style="edgeStyle=none;orthogonalLoop=1;jettySize=auto;html=1;rounded=0;startArrow=none;startFill=0;endArrow=classic;endFill=1;entryX=-0.015;entryY=0.448;entryDx=0;entryDy=0;entryPerimeter=0;exitX=1;exitY=0.5;exitDx=0;exitDy=0;shadow=0;" parent="1" source="22" target="8" edge="1">
          <mxGeometry width="100" relative="1" as="geometry">
            <mxPoint x="400" y="367" as="sourcePoint" />
            <mxPoint x="500" y="367" as="targetPoint" />
            <Array as="points" />
          </mxGeometry>
        </mxCell>
        <mxCell id="13" value="&amp;nbsp;&amp;nbsp; HTTP request&lt;br&gt;&lt;font style=&quot;font-size: 10px;&quot;&gt;with &lt;/font&gt;&lt;font style=&quot;font-size: 10px;&quot;&gt;X-Fuzzer-Covid=&amp;lt;ID&amp;gt;&lt;/font&gt;" style="text;html=1;align=center;verticalAlign=middle;resizable=0;points=[];autosize=1;strokeColor=none;fillColor=none;shadow=0;" parent="1" vertex="1">
          <mxGeometry x="385" y="326" width="140" height="40" as="geometry" />
        </mxCell>
        <mxCell id="14" value="" style="edgeStyle=none;orthogonalLoop=1;jettySize=auto;html=1;endArrow=classic;startArrow=classic;endSize=8;startSize=8;rounded=0;exitX=0.802;exitY=0.966;exitDx=0;exitDy=0;exitPerimeter=0;entryX=0.865;entryY=0.003;entryDx=0;entryDy=0;entryPerimeter=0;shadow=0;" parent="1" source="5" target="9" edge="1">
          <mxGeometry width="100" relative="1" as="geometry">
            <mxPoint x="678" y="307" as="sourcePoint" />
            <mxPoint x="678" y="397" as="targetPoint" />
            <Array as="points" />
          </mxGeometry>
        </mxCell>
        <mxCell id="15" value="" style="endArrow=none;startArrow=classic;html=1;rounded=0;exitX=0.5;exitY=1;exitDx=0;exitDy=0;entryX=0.488;entryY=1.002;entryDx=0;entryDy=0;startFill=1;endFill=0;entryPerimeter=0;shadow=0;strokeColor=#000000;" parent="1" source="21" target="7" edge="1">
          <mxGeometry width="50" height="50" relative="1" as="geometry">
            <mxPoint x="380" y="317" as="sourcePoint" />
            <mxPoint x="430" y="267" as="targetPoint" />
            <Array as="points">
              <mxPoint x="295" y="527" />
              <mxPoint x="616" y="527" />
            </Array>
          </mxGeometry>
        </mxCell>
        <mxCell id="16" value="&lt;u&gt;Shared volume&lt;/u&gt;" style="text;html=1;align=center;verticalAlign=middle;resizable=0;points=[];autosize=1;strokeColor=none;fillColor=none;shadow=0;" parent="1" vertex="1">
          <mxGeometry x="195" y="505" width="100" height="30" as="geometry" />
        </mxCell>
        <mxCell id="17" value="Coverage report for &amp;lt;ID&amp;gt;" style="text;html=1;align=center;verticalAlign=middle;resizable=0;points=[];autosize=1;strokeColor=none;fillColor=none;shadow=0;" parent="1" vertex="1">
          <mxGeometry x="375" y="527" width="160" height="30" as="geometry" />
        </mxCell>
        <mxCell id="19" value="HTTP response" style="text;html=1;align=center;verticalAlign=middle;resizable=0;points=[];autosize=1;strokeColor=none;fillColor=none;shadow=0;" parent="1" vertex="1">
          <mxGeometry x="408" y="441" width="110" height="30" as="geometry" />
        </mxCell>
        <mxCell id="20" value="" style="edgeStyle=orthogonalEdgeStyle;rounded=0;orthogonalLoop=1;jettySize=auto;html=1;startArrow=none;startFill=0;endArrow=classic;endFill=1;entryX=0.5;entryY=1;entryDx=0;entryDy=0;shadow=0;" parent="1" source="21" target="24" edge="1">
          <mxGeometry relative="1" as="geometry" />
        </mxCell>
        <mxCell id="21" value="Vulnerability detection &amp;amp;&lt;br&gt;candidate rating" style="rounded=0;whiteSpace=wrap;html=1;shadow=0;fillColor=#C40D20;fontColor=#FFFFFF;" parent="1" vertex="1">
          <mxGeometry x="210" y="445.75" width="170" height="40" as="geometry" />
        </mxCell>
        <mxCell id="22" value="Request preparation" style="rounded=0;whiteSpace=wrap;html=1;shadow=0;fillColor=#C40D20;fontColor=#FFFFFF;" parent="1" vertex="1">
          <mxGeometry x="210" y="349.5" width="170" height="25" as="geometry" />
        </mxCell>
        <mxCell id="23" value="" style="edgeStyle=orthogonalEdgeStyle;rounded=0;orthogonalLoop=1;jettySize=auto;html=1;startArrow=none;startFill=0;endArrow=classic;endFill=1;entryX=0.5;entryY=1;entryDx=0;entryDy=0;shadow=0;" parent="1" source="24" target="22" edge="1">
          <mxGeometry relative="1" as="geometry">
            <Array as="points" />
            <mxPoint x="294.84000000000015" y="387.45000000000005" as="targetPoint" />
          </mxGeometry>
        </mxCell>
        <mxCell id="24" value="Candidate mutation" style="rounded=0;whiteSpace=wrap;html=1;shadow=0;fillColor=#C40D20;fontColor=#FFFFFF;" parent="1" vertex="1">
          <mxGeometry x="210" y="398" width="170" height="25" as="geometry" />
        </mxCell>
        <mxCell id="25" value="Exception &amp;amp; error handler&lt;br&gt;&lt;div&gt;and function hooking&lt;/div&gt;" style="whiteSpace=wrap;html=1;shadow=0;fillColor=#C40D20;fontColor=#FFFFFF;" parent="1" vertex="1">
          <mxGeometry x="536" y="439" width="165" height="41" as="geometry" />
        </mxCell>
        <mxCell id="26" value="Docker environment" style="text;html=1;align=center;verticalAlign=middle;resizable=0;points=[];autosize=1;strokeColor=none;fillColor=none;shadow=0;" parent="1" vertex="1">
          <mxGeometry x="-5" y="260" width="130" height="30" as="geometry" />
        </mxCell>
        <mxCell id="27" style="edgeStyle=orthogonalEdgeStyle;rounded=0;orthogonalLoop=1;jettySize=auto;html=1;shadow=0;" parent="1" source="29" edge="1">
          <mxGeometry relative="1" as="geometry">
            <mxPoint x="190" y="424" as="targetPoint" />
            <Array as="points">
              <mxPoint x="71" y="470" />
              <mxPoint x="160" y="470" />
              <mxPoint x="160" y="424" />
            </Array>
          </mxGeometry>
        </mxCell>
        <mxCell id="28" value="" style="edgeStyle=orthogonalEdgeStyle;rounded=0;orthogonalLoop=1;jettySize=auto;html=1;entryX=0.5;entryY=0;entryDx=0;entryDy=0;shadow=0;" parent="1" source="29" target="31" edge="1">
          <mxGeometry relative="1" as="geometry" />
        </mxCell>
        <mxCell id="29" value="" style="rounded=0;whiteSpace=wrap;html=1;opacity=80;shadow=0;" parent="1" vertex="1">
          <mxGeometry x="11" y="369" width="120" height="60" as="geometry" />
        </mxCell>
        <mxCell id="30" style="edgeStyle=orthogonalEdgeStyle;rounded=0;orthogonalLoop=1;jettySize=auto;html=1;shadow=0;" parent="1" source="31" edge="1">
          <mxGeometry relative="1" as="geometry">
            <mxPoint x="190" y="424" as="targetPoint" />
            <Array as="points">
              <mxPoint x="160" y="500" />
              <mxPoint x="160" y="424" />
            </Array>
          </mxGeometry>
        </mxCell>
        <mxCell id="31" value="" style="rounded=0;whiteSpace=wrap;html=1;opacity=80;shadow=0;" parent="1" vertex="1">
          <mxGeometry x="11" y="486" width="120" height="74" as="geometry" />
        </mxCell>
        <mxCell id="32" value="&lt;u&gt;Composegen&lt;/u&gt;" style="text;html=1;strokeColor=none;fillColor=none;align=center;verticalAlign=middle;whiteSpace=wrap;rounded=0;shadow=0;" parent="1" vertex="1">
          <mxGeometry x="40" y="485" width="80" height="30" as="geometry" />
        </mxCell>
        <mxCell id="33" value="&lt;u&gt;HARgen&lt;/u&gt;" style="text;html=1;strokeColor=none;fillColor=none;align=center;verticalAlign=middle;whiteSpace=wrap;rounded=0;shadow=0;" parent="1" vertex="1">
          <mxGeometry x="39" y="368" width="80" height="30" as="geometry" />
        </mxCell>
        <mxCell id="34" value="&lt;div&gt;fuzzer&lt;/div&gt;&lt;div&gt;configs&lt;/div&gt;" style="text;html=1;strokeColor=none;fillColor=none;align=left;verticalAlign=middle;whiteSpace=wrap;rounded=0;shadow=0;" parent="1" vertex="1">
          <mxGeometry x="80" y="435.3" width="55" height="30" as="geometry" />
        </mxCell>
        <mxCell id="35" value="docker-&lt;br&gt;compose&lt;br&gt;files" style="text;html=1;strokeColor=none;fillColor=none;align=left;verticalAlign=middle;whiteSpace=wrap;rounded=0;shadow=0;" parent="1" vertex="1">
          <mxGeometry x="136" y="518" width="60" height="30" as="geometry" />
        </mxCell>
        <mxCell id="36" value="" style="endArrow=none;dashed=1;html=1;dashPattern=1 3;strokeWidth=2;rounded=0;entryX=0.25;entryY=0;entryDx=0;entryDy=0;exitX=0.251;exitY=0.992;exitDx=0;exitDy=0;exitPerimeter=0;shadow=0;" parent="1" edge="1">
          <mxGeometry width="50" height="50" relative="1" as="geometry">
            <mxPoint x="189.72000000000003" y="562.6" as="sourcePoint" />
            <mxPoint x="189" y="265" as="targetPoint" />
          </mxGeometry>
        </mxCell>
        <mxCell id="40" value="HAR exports" style="text;html=1;strokeColor=none;fillColor=none;align=center;verticalAlign=middle;whiteSpace=wrap;rounded=0;shadow=0;" parent="1" vertex="1">
          <mxGeometry x="100" y="338" width="80" height="30" as="geometry" />
        </mxCell>
        <mxCell id="2SGQKEkAuUbyCjOHr_Tw-44" value="" style="rounded=0;whiteSpace=wrap;html=1;shadow=0;fillColor=#C40D20;fontColor=#FFFFFF;" vertex="1" parent="1">
          <mxGeometry x="9.5" y="283" width="61.3" height="46" as="geometry" />
        </mxCell>
        <mxCell id="41" value="&lt;font style=&quot;font-size: 11px;&quot;&gt;&lt;i&gt;converts HAR exports to fuzzer configs&lt;/i&gt;&lt;/font&gt;" style="text;html=1;strokeColor=none;fillColor=none;align=center;verticalAlign=middle;whiteSpace=wrap;rounded=0;shadow=0;" parent="1" vertex="1">
          <mxGeometry x="12.7" y="394.63" width="116" height="30" as="geometry" />
        </mxCell>
        <mxCell id="42" value="&lt;font style=&quot;font-size: 11px;&quot;&gt;&lt;i&gt;generates docker-compose.yml for &lt;br&gt;given fuzzer config(s)&lt;/i&gt;&lt;/font&gt;" style="text;html=1;strokeColor=none;fillColor=none;align=center;verticalAlign=middle;whiteSpace=wrap;rounded=0;shadow=0;spacing=2;" parent="1" vertex="1">
          <mxGeometry x="6" y="510" width="130" height="46" as="geometry" />
        </mxCell>
        <mxCell id="43" value="&amp;nbsp;&amp;nbsp;&amp;nbsp;&amp;nbsp;&amp;nbsp; &lt;u&gt;Login script&lt;br&gt;&lt;/u&gt;" style="rounded=0;whiteSpace=wrap;html=1;shadow=0;" parent="1" vertex="1">
          <mxGeometry x="201" y="283" width="189" height="25" as="geometry" />
        </mxCell>
        <mxCell id="44" value="" style="endArrow=classic;html=1;rounded=0;exitX=0.5;exitY=1;exitDx=0;exitDy=0;entryX=0.5;entryY=0;entryDx=0;entryDy=0;shadow=0;" parent="1" source="43" target="3" edge="1">
          <mxGeometry width="50" height="50" relative="1" as="geometry">
            <mxPoint x="310" y="217" as="sourcePoint" />
            <mxPoint x="350" y="327" as="targetPoint" />
          </mxGeometry>
        </mxCell>
        <mxCell id="xoPdb0vuyhTM1RaZS1nK-45" value="" style="rounded=0;whiteSpace=wrap;html=1;opacity=80;shadow=0;" parent="1" vertex="1">
          <mxGeometry x="76.3" y="283" width="105" height="46" as="geometry" />
        </mxCell>
        <mxCell id="xoPdb0vuyhTM1RaZS1nK-46" value="&lt;i&gt;collects endpoints&lt;br&gt;&lt;/i&gt;" style="text;html=1;strokeColor=none;fillColor=none;align=center;verticalAlign=middle;whiteSpace=wrap;rounded=0;shadow=0;" parent="1" vertex="1">
          <mxGeometry x="70.8" y="299" width="116" height="30" as="geometry" />
        </mxCell>
        <mxCell id="xoPdb0vuyhTM1RaZS1nK-47" value="&lt;u&gt;Crawler&lt;/u&gt;" style="text;html=1;strokeColor=none;fillColor=none;align=center;verticalAlign=middle;whiteSpace=wrap;rounded=0;shadow=0;" parent="1" vertex="1">
          <mxGeometry x="95" y="281.5" width="80" height="30" as="geometry" />
        </mxCell>
        <mxCell id="xoPdb0vuyhTM1RaZS1nK-51" value="" style="endArrow=classic;html=1;rounded=0;shadow=0;" parent="1" edge="1">
          <mxGeometry width="50" height="50" relative="1" as="geometry">
            <mxPoint x="71" y="340" as="sourcePoint" />
            <mxPoint x="70.8" y="369" as="targetPoint" />
          </mxGeometry>
        </mxCell>
        <mxCell id="xoPdb0vuyhTM1RaZS1nK-52" value="" style="endArrow=none;html=1;rounded=0;entryX=0.378;entryY=1.011;entryDx=0;entryDy=0;entryPerimeter=0;shadow=0;" parent="1" edge="1" target="xoPdb0vuyhTM1RaZS1nK-46">
          <mxGeometry width="50" height="50" relative="1" as="geometry">
            <mxPoint x="71" y="340" as="sourcePoint" />
            <mxPoint x="99.2838709677419" y="324" as="targetPoint" />
          </mxGeometry>
        </mxCell>
        <mxCell id="xoPdb0vuyhTM1RaZS1nK-53" value="" style="endArrow=none;html=1;rounded=0;exitX=0.538;exitY=1.016;exitDx=0;exitDy=0;shadow=0;exitPerimeter=0;" parent="1" edge="1" source="2SGQKEkAuUbyCjOHr_Tw-44">
          <mxGeometry width="50" height="50" relative="1" as="geometry">
            <mxPoint x="43" y="325" as="sourcePoint" />
            <mxPoint x="71.2838709677419" y="339.9999999999998" as="targetPoint" />
          </mxGeometry>
        </mxCell>
        <mxCell id="38" value="&lt;u&gt;Browser&lt;/u&gt;" style="text;html=1;strokeColor=none;fillColor=none;align=center;verticalAlign=middle;whiteSpace=wrap;rounded=0;shadow=0;fontColor=#FFFFFF;" parent="1" vertex="1">
          <mxGeometry x="8.999999999999993" y="281.5" width="60" height="30" as="geometry" />
        </mxCell>
        <mxCell id="2SGQKEkAuUbyCjOHr_Tw-49" value="" style="shape=image;verticalLabelPosition=bottom;labelBackgroundColor=default;verticalAlign=top;aspect=fixed;imageAspect=0;image=data:image/svg+xml,PHN2ZyB2aWV3Qm94PSIwIDAgNTEyIDUxMiIgeG1sbnM9Imh0dHA6Ly93d3cudzMub3JnLzIwMDAvc3ZnIj48cGF0aCBkPSJNMzg0IDIwOEExNzYgMTc2IDAgMSAwIDMyIDIwOGExNzYgMTc2IDAgMSAwIDM1MiAwek0zNDMuMyAzNjZDMzA3IDM5Ny4yIDI1OS43IDQxNiAyMDggNDE2QzkzLjEgNDE2IDAgMzIyLjkgMCAyMDhTOTMuMSAwIDIwOCAwUzQxNiA5My4xIDQxNiAyMDhjMCA1MS43LTE4LjggOTktNTAgMTM1LjNMNTEwLjUgNDg3LjlsLTIyLjYgMjIuNkwzNDMuMyAzNjZ6Ii8+PC9zdmc+;" vertex="1" parent="1">
          <mxGeometry x="95" y="290.5" width="12" height="12" as="geometry" />
        </mxCell>
        <mxCell id="2SGQKEkAuUbyCjOHr_Tw-50" value="" style="shape=image;verticalLabelPosition=bottom;labelBackgroundColor=default;verticalAlign=top;aspect=fixed;imageAspect=0;image=data:image/svg+xml,PHN2ZyB2aWV3Qm94PSIwIDAgNDQ4IDUxMiIgeG1sbnM9Imh0dHA6Ly93d3cudzMub3JnLzIwMDAvc3ZnIj48cGF0aCBkPSJNNDE2IDQxNmMwIDIuNC0xIDcuNC04LjQgMTQuOWMtNy41IDcuNi0xOS45IDE1LjktMzcuOCAyMy42QzMzNC4xIDQ2OS44IDI4Mi42IDQ4MCAyMjQgNDgwcy0xMTAuMS0xMC4yLTE0NS44LTI1LjVjLTE3LjktNy43LTMwLjMtMTYtMzcuOC0yMy42QzMzIDQyMy40IDMyIDQxOC40IDMyIDQxNmwwLTg0LjVjMTcuMiA4LjkgMzguMSAxNi4zIDYxLjIgMjEuOUMxMzAuNyAzNjIuNyAxNzUuOCAzNjggMjI0IDM2OHM5My4zLTUuMyAxMzAuOC0xNC41YzIzLjEtNS43IDQ0LTEzIDYxLjItMjEuOWwwIDg0LjV6bTAtMjEyLjVsMCA5MC42Yy0xNC41IDEwLjYtMzcuOSAyMC42LTY4LjkgMjguM0MzMTIuNSAzMzAuOSAyNzAgMzM2IDIyNCAzMzZzLTg4LjUtNS4xLTEyMy4xLTEzLjZjLTMxLTcuNi01NC40LTE3LjctNjguOS0yOC4zbDAtOTAuNmMxNy4yIDguOSAzOC4xIDE2LjMgNjEuMiAyMS45QzEzMC43IDIzNC43IDE3NS44IDI0MCAyMjQgMjQwczkzLjMtNS4zIDEzMC44LTE0LjVjMjMuMS01LjcgNDQtMTMgNjEuMi0yMS45em0wLTM3LjRjLTE0LjUgMTAuNi0zNy45IDIwLjYtNjguOSAyOC4zQzMxMi41IDIwMi45IDI3MCAyMDggMjI0IDIwOHMtODguNS01LjEtMTIzLjEtMTMuNmMtMzEtNy42LTU0LjQtMTcuNy02OC45LTI4LjNMMzIgOTZjMC0yLjQgMS03LjQgOC40LTE0LjljNy41LTcuNiAxOS45LTE1LjkgMzcuOC0yMy42QzExMy45IDQyLjIgMTY1LjQgMzIgMjI0IDMyczExMC4xIDEwLjIgMTQ1LjggMjUuNWMxNy45IDcuNyAzMC4zIDE2IDM3LjggMjMuNkM0MTUgODguNiA0MTYgOTMuNiA0MTYgOTZsMCA3MC4xek00NDggNDE2bDAtMzIwQzQ0OCA0MyAzNDcuNyAwIDIyNCAwUzAgNDMgMCA5NkwwIDQxNmMwIDUzIDEwMC4zIDk2IDIyNCA5NnMyMjQtNDMgMjI0LTk2eiIvPjwvc3ZnPg==;" vertex="1" parent="1">
          <mxGeometry x="568" y="288.5" width="11.38" height="13" as="geometry" />
        </mxCell>
        <mxCell id="2SGQKEkAuUbyCjOHr_Tw-51" value="" style="shape=image;verticalLabelPosition=bottom;labelBackgroundColor=default;verticalAlign=top;aspect=fixed;imageAspect=0;image=data:image/svg+xml,PHN2ZyB2aWV3Qm94PSIwIDAgNTEyIDUxMiIgeG1sbnM9Imh0dHA6Ly93d3cudzMub3JnLzIwMDAvc3ZnIj48cGF0aCBkPSJNMzIgNjRsMCAxMjggNDQ4IDAgMC0xMjhMMzIgNjR6TTAgMzJsMzIgMCA0NDggMCAzMiAwIDAgMzIgMCAxMjggMCAzMi0zMiAwTDMyIDIyNCAwIDIyNGwwLTMyTDAgNjQgMCAzMnpNMzIgMzIwbDAgMTI4IDQ0OCAwIDAtMTI4TDMyIDMyMHpNMCAyODhsMzIgMCA0NDggMCAzMiAwIDAgMzIgMCAxMjggMCAzMi0zMiAwTDMyIDQ4MCAwIDQ4MGwwLTMyTDAgMzIwbDAtMzJ6bTMwNCA5NmEyNCAyNCAwIDEgMSA0OCAwIDI0IDI0IDAgMSAxIC00OCAwem0yNC0yODBhMjQgMjQgMCAxIDEgMCA0OCAyNCAyNCAwIDEgMSAwLTQ4em01NiAyODBhMjQgMjQgMCAxIDEgNDggMCAyNCAyNCAwIDEgMSAtNDggMHptMjQtMjgwYTI0IDI0IDAgMSAxIDAgNDggMjQgMjQgMCAxIDEgMC00OHoiIGZpbGw9IiMwMDAwMDAiLz48L3N2Zz4=;" vertex="1" parent="1">
          <mxGeometry x="523" y="330" width="12" height="12" as="geometry" />
        </mxCell>
        <mxCell id="2SGQKEkAuUbyCjOHr_Tw-52" value="" style="shape=image;verticalLabelPosition=bottom;labelBackgroundColor=default;verticalAlign=top;aspect=fixed;imageAspect=0;image=data:image/svg+xml,PHN2ZyB2aWV3Qm94PSIwIDAgNTEyIDUxMiIgeG1sbnM9Imh0dHA6Ly93d3cudzMub3JnLzIwMDAvc3ZnIj48cGF0aCBkPSJNMTkyIDE3NmMwLTc5LjUgNjQuNS0xNDQgMTQ0LTE0NHMxNDQgNjQuNSAxNDQgMTQ0cy02NC41IDE0NC0xNDQgMTQ0Yy0xMS4xIDAtMjItMS4zLTMyLjQtMy42bC04LjYtMi02LjMgNi4zTDI1Ny40IDM1MiAyMDggMzUybC0xNiAwIDAgMTYgMCA0OC00OCAwLTE2IDAgMCAxNiAwIDQ4LTk2IDAgMC04MS40TDE5NC44IDIzNS44bDYuOS02LjktMi45LTkuM2MtNC40LTEzLjgtNi43LTI4LjQtNi43LTQzLjd6TTMzNiAwQzIzOC44IDAgMTYwIDc4LjggMTYwIDE3NmMwIDE1LjEgMS45IDI5LjggNS41IDQzLjlMNC43IDM4MC43IDAgMzg1LjQgMCAzOTIgMCA0OTZsMCAxNiAxNiAwIDEyOCAwIDE2IDAgMC0xNiAwLTQ4IDQ4IDAgMTYgMCAwLTE2IDAtNDggNDAgMCA2LjYgMCA0LjctNC43IDMwLTMwYzEwIDEuOCAyMC4yIDIuNyAzMC43IDIuN2M5Ny4yIDAgMTc2LTc4LjggMTc2LTE3NlM0MzMuMiAwIDMzNiAwem0zMiAxNjhhMjQgMjQgMCAxIDAgMC00OCAyNCAyNCAwIDEgMCAwIDQ4eiIgZmlsbD0iIzAwMDAwMCIvPjwvc3ZnPg==;" vertex="1" parent="1">
          <mxGeometry x="258" y="288.5" width="13" height="13" as="geometry" />
        </mxCell>
        <mxCell id="2SGQKEkAuUbyCjOHr_Tw-53" value="" style="shape=image;verticalLabelPosition=bottom;labelBackgroundColor=default;verticalAlign=top;aspect=fixed;imageAspect=0;image=data:image/svg+xml,PHN2ZyB2aWV3Qm94PSIwIDAgNjQwIDUxMiIgeG1sbnM9Imh0dHA6Ly93d3cudzMub3JnLzIwMDAvc3ZnIj48cGF0aCBkPSJNMjA1IDU2LjFMMTk1IDggMTI1IDggMTE1IDU2LjFjLTEzLjggNS4yLTI2LjUgMTIuNy0zNy41IDIyTDM0LjQgNjQgMCAxMjMuNGwzMy45IDMwLjNDMzIuNyAxNjAuOSAzMiAxNjguNCAzMiAxNzZzLjcgMTUuMSAxLjkgMjIuM0wwIDIyOC42IDM0LjQgMjg4bDQzLjEtMTQuMmMxMS4xIDkuMyAyMy43IDE2LjggMzcuNSAyMkwxMjUgMzQ0bDcwIDAgMTAtNDguMWMxMy44LTUuMiAyNi41LTEyLjcgMzcuNS0yMkwyODUuNiAyODggMzIwIDIyOC42bC0zMy45LTMwLjNjMS4zLTcuMyAxLjktMTQuNyAxLjktMjIuM3MtLjctMTUuMS0xLjktMjIuM0wzMjAgMTIzLjQgMjg1LjYgNjQgMjQyLjUgNzguMmMtMTEuMS05LjMtMjMuNy0xNi44LTM3LjUtMjJ6TTI3MSAxMDIuNWw4LjMgMTQuMy0xNC41IDEyLjktMTMuMyAxMS45IDMuMSAxNy42YzEgNS40IDEuNSAxMSAxLjUgMTYuOHMtLjUgMTEuNC0xLjUgMTYuOGwtMy4xIDE3LjYgMTMuMyAxMS45IDE0LjUgMTIuOUwyNzEgMjQ5LjVsLTE4LjQtNi4xLTE3LTUuNi0xMy43IDExLjVjLTguMyA3LTE3LjggMTIuNi0yOC4xIDE2LjVsLTE2LjUgNi4yLTMuNiAxNy4yTDE2OSAzMTJsLTE4IDAtNC43LTIyLjctMy42LTE3LjItMTYuNS02LjJjLTEwLjMtMy45LTE5LjgtOS41LTI4LjEtMTYuNUw4NC40IDIzNy44bC0xNyA1LjZMNDkgMjQ5LjVsLTguMy0xNC4zIDE0LjUtMTIuOSAxMy4zLTExLjktMy4xLTE3LjZjLTEtNS40LTEuNS0xMS0xLjUtMTYuOHMuNS0xMS40IDEuNS0xNi44bDMuMS0xNy42TDU1LjIgMTI5LjggNDAuOCAxMTYuOSA0OSAxMDIuNWwxOC40IDYuMSAxNyA1LjYgMTMuNy0xMS41YzguMy03IDE3LjgtMTIuNiAyOC4xLTE2LjVsMTYuNS02LjIgMy42LTE3LjJMMTUxIDQwbDE4IDAgNC43IDIyLjcgMy42IDE3LjIgMTYuNSA2LjJjMTAuMyAzLjkgMTkuOCA5LjUgMjguMSAxNi41bDEzLjcgMTEuNSAxNy01LjYgMTguNC02LjF6TTE2MCAyMDBhMjQgMjQgMCAxIDEgMC00OCAyNCAyNCAwIDEgMSAwIDQ4em0tNTYtMjRhNTYgNTYgMCAxIDAgMTEyIDAgNTYgNTYgMCAxIDAgLTExMiAwek0zNDQuMSAzMDdMMjk2IDMxN2wwIDcwIDQ4LjEgMTBjNS4yIDEzLjggMTIuNyAyNi41IDIyIDM3LjVMMzUyIDQ3Ny42IDQxMS40IDUxMmwzMC4zLTMzLjljNy4zIDEuMyAxNC43IDEuOSAyMi4zIDEuOXMxNS4xLS43IDIyLjMtMS45TDUxNi42IDUxMiA1NzYgNDc3LjZsLTE0LjItNDMuMWM5LjMtMTEuMSAxNi44LTIzLjcgMjItMzcuNUw2MzIgMzg3bDAtNzAtNDguMS0xMGMtNS4yLTEzLjgtMTIuNy0yNi41LTIyLTM3LjVMNTc2IDIyNi40IDUxNi42IDE5MmwtMzAuMyAzMy45Yy03LjMtMS4zLTE0LjctMS45LTIyLjMtMS45cy0xNS4xIC43LTIyLjMgMS45TDQxMS40IDE5MiAzNTIgMjI2LjRsMTQuMiA0My4xYy05LjMgMTEuMS0xNi44IDIzLjctMjIgMzcuNXpNMzkwLjUgMjQxbDE0LjMtOC4zIDEyLjkgMTQuNSAxMS45IDEzLjMgMTcuNi0zLjFjNS40LTEgMTEtMS41IDE2LjgtMS41czExLjQgLjUgMTYuOCAxLjVsMTcuNiAzLjEgMTEuOS0xMy4zIDEyLjktMTQuNSAxNC4zIDguMy02LjEgMTguNC01LjYgMTcgMTEuNSAxMy43YzcgOC4zIDEyLjYgMTcuOCAxNi41IDI4LjFsNi4yIDE2LjUgMTcuMiAzLjZMNjAwIDM0M2wwIDE4LTIyLjcgNC43LTE3LjIgMy42LTYuMiAxNi41Yy0zLjkgMTAuMy05LjUgMTkuOC0xNi41IDI4LjFsLTExLjUgMTMuNyA1LjYgMTcgNi4xIDE4LjQtMTQuMyA4LjMtMTIuOS0xNC41LTExLjktMTMuMy0xNy42IDMuMWMtNS40IDEtMTEgMS41LTE2LjggMS41cy0xMS40LS41LTE2LjgtMS41bC0xNy42LTMuMS0xMS45IDEzLjMtMTIuOSAxNC41TDM5MC41IDQ2M2w2LjEtMTguNCA1LjYtMTctMTEuNS0xMy43Yy03LTguMy0xMi42LTE3LjgtMTYuNS0yOC4xbC02LjItMTYuNS0xNy4yLTMuNkwzMjggMzYxbDAtMTggMjIuNy00LjcgMTcuMi0zLjYgNi4yLTE2LjVjMy45LTEwLjMgOS41LTE5LjggMTYuNS0yOC4xbDExLjUtMTMuNy01LjYtMTdMMzkwLjUgMjQxek00ODggMzUyYTI0IDI0IDAgMSAxIC00OCAwIDI0IDI0IDAgMSAxIDQ4IDB6bS0yNCA1NmE1NiA1NiAwIDEgMCAwLTExMiA1NiA1NiAwIDEgMCAwIDExMnoiIGZpbGw9IiMwMDAwMDAiLz48L3N2Zz4=;" vertex="1" parent="1">
          <mxGeometry x="32" y="375.5" width="17.5" height="14" as="geometry" />
        </mxCell>
        <mxCell id="2SGQKEkAuUbyCjOHr_Tw-57" value="" style="shape=image;verticalLabelPosition=bottom;labelBackgroundColor=default;verticalAlign=top;aspect=fixed;imageAspect=0;image=data:image/svg+xml,PHN2ZyB2aWV3Qm94PSIwIDAgNTEyIDUxMiIgeG1sbnM9Imh0dHA6Ly93d3cudzMub3JnLzIwMDAvc3ZnIj48cGF0aCBkPSJNMjcyIDE2bDAtMTZMMjQwIDBsMCAxNiAwIDMxMy40TDEzOS4zIDIyOC43IDEyOCAyMTcuNCAxMDUuNCAyNDBsMTEuMyAxMS4zIDEyOCAxMjhMMjU2IDM5MC42bDExLjMtMTEuMyAxMjgtMTI4TDQwNi42IDI0MCAzODQgMjE3LjRsLTExLjMgMTEuM0wyNzIgMzI5LjQgMjcyIDE2ek0xNDAuMSAzMjBMMzIgMzIwIDAgMzIwbDAgMzJMMCA0ODBsMCAzMiAzMiAwIDQ0OCAwIDMyIDAgMC0zMiAwLTEyOCAwLTMyLTMyIDAtMTA4LjEgMC0zMiAzMkw0ODAgMzUybDAgMTI4TDMyIDQ4MGwwLTEyOCAxNDAuMSAwLTMyLTMyek00MzIgNDE2YTI0IDI0IDAgMSAwIC00OCAwIDI0IDI0IDAgMSAwIDQ4IDB6IiBmaWxsPSIjMDAwMDAwIi8+PC9zdmc+;" vertex="1" parent="1">
          <mxGeometry x="85" y="344" width="13" height="13" as="geometry" />
        </mxCell>
        <mxCell id="2SGQKEkAuUbyCjOHr_Tw-58" value="" style="shape=image;verticalLabelPosition=bottom;labelBackgroundColor=default;verticalAlign=top;aspect=fixed;imageAspect=0;image=data:image/svg+xml,PHN2ZyB2aWV3Qm94PSIwIDAgMzg0IDUxMiIgeG1sbnM9Imh0dHA6Ly93d3cudzMub3JnLzIwMDAvc3ZnIj48cGF0aCBkPSJNMzIgNDgwTDMyIDMybDE2MCAwIDAgMTQ0IDAgMTYgMTYgMCAxNDQgMCAwIDI4OEwzMiA0ODB6TTIyNCAzNy4zTDM0Ni43IDE2MCAyMjQgMTYwbDAtMTIyLjd6TTIzMiAwTDMyIDAgMCAwIDAgMzIgMCA0ODBsMCAzMiAzMiAwIDMyMCAwIDMyIDAgMC0zMiAwLTMyOEwyMzIgMHpNMTU1LjMgMjk5LjNMMTY2LjYgMjg4IDE0NCAyNjUuNGwtMTEuMyAxMS4zLTQ4IDQ4TDczLjQgMzM2bDExLjMgMTEuMyA0OCA0OEwxNDQgNDA2LjYgMTY2LjYgMzg0bC0xMS4zLTExLjNMMTE4LjYgMzM2bDM2LjctMzYuN3ptOTYtMjIuNkwyNDAgMjY1LjQgMjE3LjQgMjg4bDExLjMgMTEuM0wyNjUuNCAzMzZsLTM2LjcgMzYuN0wyMTcuNCAzODQgMjQwIDQwNi42bDExLjMtMTEuMyA0OC00OEwzMTAuNiAzMzZsLTExLjMtMTEuMy00OC00OHoiIGZpbGw9IiMwMDAwMDAiLz48L3N2Zz4=;" vertex="1" parent="1">
          <mxGeometry x="406" y="448" width="9.45" height="12.6" as="geometry" />
        </mxCell>
        <mxCell id="2SGQKEkAuUbyCjOHr_Tw-60" value="" style="shape=image;verticalLabelPosition=bottom;labelBackgroundColor=default;verticalAlign=top;aspect=fixed;imageAspect=0;image=data:image/svg+xml,PHN2ZyB2aWV3Qm94PSIwIDAgMzg0IDUxMiIgeG1sbnM9Imh0dHA6Ly93d3cudzMub3JnLzIwMDAvc3ZnIj48cGF0aCBkPSJNMzIgNDgwTDMyIDMybDE2MCAwIDAgMTQ0IDAgMTYgMTYgMCAxNDQgMCAwIDI4OEwzMiA0ODB6TTIyNCAzNy4zTDM0Ni43IDE2MCAyMjQgMTYwbDAtMTIyLjd6TTIzMiAwTDMyIDAgMCAwIDAgMzIgMCA0ODBsMCAzMiAzMiAwIDMyMCAwIDMyIDAgMC0zMiAwLTMyOEwyMzIgMHpNMTU1LjMgMjk5LjNMMTY2LjYgMjg4IDE0NCAyNjUuNGwtMTEuMyAxMS4zLTQ4IDQ4TDczLjQgMzM2bDExLjMgMTEuMyA0OCA0OEwxNDQgNDA2LjYgMTY2LjYgMzg0bC0xMS4zLTExLjNMMTE4LjYgMzM2bDM2LjctMzYuN3ptOTYtMjIuNkwyNDAgMjY1LjQgMjE3LjQgMjg4bDExLjMgMTEuM0wyNjUuNCAzMzZsLTM2LjcgMzYuN0wyMTcuNCAzODQgMjQwIDQwNi42bDExLjMtMTEuMyA0OC00OEwzMTAuNiAzMzZsLTExLjMtMTEuMy00OC00OHoiIGZpbGw9IiMwMDAwMDAiLz48L3N2Zz4=;" vertex="1" parent="1">
          <mxGeometry x="409" y="331.4" width="9.45" height="12.6" as="geometry" />
        </mxCell>
        <mxCell id="2SGQKEkAuUbyCjOHr_Tw-64" value="" style="endArrow=none;html=1;rounded=0;exitX=0.5;exitY=1;exitDx=0;exitDy=0;shadow=0;" edge="1" parent="1" source="38" target="2SGQKEkAuUbyCjOHr_Tw-55">
          <mxGeometry width="50" height="50" relative="1" as="geometry">
            <mxPoint x="39" y="311" as="sourcePoint" />
            <mxPoint x="71.2838709677419" y="339.9999999999998" as="targetPoint" />
          </mxGeometry>
        </mxCell>
        <mxCell id="2SGQKEkAuUbyCjOHr_Tw-55" value="" style="shape=image;verticalLabelPosition=bottom;labelBackgroundColor=default;verticalAlign=top;aspect=fixed;imageAspect=0;image=data:image/svg+xml,PHN2ZyB2aWV3Qm94PSIwIDAgNTEyIDUxMiIgeG1sbnM9Imh0dHA6Ly93d3cudzMub3JnLzIwMDAvc3ZnIj48cGF0aCBkPSJNMTYwIDY0bDAgNjQgMzIwIDAgMC02NEwxNjAgNjR6bS0zMiAwTDMyIDY0bDAgNjQgOTYgMCAwLTY0ek0zMiAxNjBsMCAyODggNDQ4IDAgMC0yODgtMzM2IDBMMzIgMTYwek0wIDMybDMyIDAgNDQ4IDAgMzIgMCAwIDMyIDAgMzg0IDAgMzItMzIgMEwzMiA0ODAgMCA0ODBsMC0zMkwwIDY0IDAgMzJ6IiBmaWxsPSIjZmZmZmZmIi8+PC9zdmc+;" vertex="1" parent="1">
          <mxGeometry x="32" y="308" width="13" height="13" as="geometry" />
        </mxCell>
        <mxCell id="2SGQKEkAuUbyCjOHr_Tw-65" value="" style="shape=image;verticalLabelPosition=bottom;labelBackgroundColor=default;verticalAlign=top;aspect=fixed;imageAspect=0;image=data:image/svg+xml,PHN2ZyB2aWV3Qm94PSIwIDAgNjQwIDUxMiIgeG1sbnM9Imh0dHA6Ly93d3cudzMub3JnLzIwMDAvc3ZnIj48cGF0aCBkPSJNMjA1IDU2LjFMMTk1IDggMTI1IDggMTE1IDU2LjFjLTEzLjggNS4yLTI2LjUgMTIuNy0zNy41IDIyTDM0LjQgNjQgMCAxMjMuNGwzMy45IDMwLjNDMzIuNyAxNjAuOSAzMiAxNjguNCAzMiAxNzZzLjcgMTUuMSAxLjkgMjIuM0wwIDIyOC42IDM0LjQgMjg4bDQzLjEtMTQuMmMxMS4xIDkuMyAyMy43IDE2LjggMzcuNSAyMkwxMjUgMzQ0bDcwIDAgMTAtNDguMWMxMy44LTUuMiAyNi41LTEyLjcgMzcuNS0yMkwyODUuNiAyODggMzIwIDIyOC42bC0zMy45LTMwLjNjMS4zLTcuMyAxLjktMTQuNyAxLjktMjIuM3MtLjctMTUuMS0xLjktMjIuM0wzMjAgMTIzLjQgMjg1LjYgNjQgMjQyLjUgNzguMmMtMTEuMS05LjMtMjMuNy0xNi44LTM3LjUtMjJ6TTI3MSAxMDIuNWw4LjMgMTQuMy0xNC41IDEyLjktMTMuMyAxMS45IDMuMSAxNy42YzEgNS40IDEuNSAxMSAxLjUgMTYuOHMtLjUgMTEuNC0xLjUgMTYuOGwtMy4xIDE3LjYgMTMuMyAxMS45IDE0LjUgMTIuOUwyNzEgMjQ5LjVsLTE4LjQtNi4xLTE3LTUuNi0xMy43IDExLjVjLTguMyA3LTE3LjggMTIuNi0yOC4xIDE2LjVsLTE2LjUgNi4yLTMuNiAxNy4yTDE2OSAzMTJsLTE4IDAtNC43LTIyLjctMy42LTE3LjItMTYuNS02LjJjLTEwLjMtMy45LTE5LjgtOS41LTI4LjEtMTYuNUw4NC40IDIzNy44bC0xNyA1LjZMNDkgMjQ5LjVsLTguMy0xNC4zIDE0LjUtMTIuOSAxMy4zLTExLjktMy4xLTE3LjZjLTEtNS40LTEuNS0xMS0xLjUtMTYuOHMuNS0xMS40IDEuNS0xNi44bDMuMS0xNy42TDU1LjIgMTI5LjggNDAuOCAxMTYuOSA0OSAxMDIuNWwxOC40IDYuMSAxNyA1LjYgMTMuNy0xMS41YzguMy03IDE3LjgtMTIuNiAyOC4xLTE2LjVsMTYuNS02LjIgMy42LTE3LjJMMTUxIDQwbDE4IDAgNC43IDIyLjcgMy42IDE3LjIgMTYuNSA2LjJjMTAuMyAzLjkgMTkuOCA5LjUgMjguMSAxNi41bDEzLjcgMTEuNSAxNy01LjYgMTguNC02LjF6TTE2MCAyMDBhMjQgMjQgMCAxIDEgMC00OCAyNCAyNCAwIDEgMSAwIDQ4em0tNTYtMjRhNTYgNTYgMCAxIDAgMTEyIDAgNTYgNTYgMCAxIDAgLTExMiAwek0zNDQuMSAzMDdMMjk2IDMxN2wwIDcwIDQ4LjEgMTBjNS4yIDEzLjggMTIuNyAyNi41IDIyIDM3LjVMMzUyIDQ3Ny42IDQxMS40IDUxMmwzMC4zLTMzLjljNy4zIDEuMyAxNC43IDEuOSAyMi4zIDEuOXMxNS4xLS43IDIyLjMtMS45TDUxNi42IDUxMiA1NzYgNDc3LjZsLTE0LjItNDMuMWM5LjMtMTEuMSAxNi44LTIzLjcgMjItMzcuNUw2MzIgMzg3bDAtNzAtNDguMS0xMGMtNS4yLTEzLjgtMTIuNy0yNi41LTIyLTM3LjVMNTc2IDIyNi40IDUxNi42IDE5MmwtMzAuMyAzMy45Yy03LjMtMS4zLTE0LjctMS45LTIyLjMtMS45cy0xNS4xIC43LTIyLjMgMS45TDQxMS40IDE5MiAzNTIgMjI2LjRsMTQuMiA0My4xYy05LjMgMTEuMS0xNi44IDIzLjctMjIgMzcuNXpNMzkwLjUgMjQxbDE0LjMtOC4zIDEyLjkgMTQuNSAxMS45IDEzLjMgMTcuNi0zLjFjNS40LTEgMTEtMS41IDE2LjgtMS41czExLjQgLjUgMTYuOCAxLjVsMTcuNiAzLjEgMTEuOS0xMy4zIDEyLjktMTQuNSAxNC4zIDguMy02LjEgMTguNC01LjYgMTcgMTEuNSAxMy43YzcgOC4zIDEyLjYgMTcuOCAxNi41IDI4LjFsNi4yIDE2LjUgMTcuMiAzLjZMNjAwIDM0M2wwIDE4LTIyLjcgNC43LTE3LjIgMy42LTYuMiAxNi41Yy0zLjkgMTAuMy05LjUgMTkuOC0xNi41IDI4LjFsLTExLjUgMTMuNyA1LjYgMTcgNi4xIDE4LjQtMTQuMyA4LjMtMTIuOS0xNC41LTExLjktMTMuMy0xNy42IDMuMWMtNS40IDEtMTEgMS41LTE2LjggMS41cy0xMS40LS41LTE2LjgtMS41bC0xNy42LTMuMS0xMS45IDEzLjMtMTIuOSAxNC41TDM5MC41IDQ2M2w2LjEtMTguNCA1LjYtMTctMTEuNS0xMy43Yy03LTguMy0xMi42LTE3LjgtMTYuNS0yOC4xbC02LjItMTYuNS0xNy4yLTMuNkwzMjggMzYxbDAtMTggMjIuNy00LjcgMTcuMi0zLjYgNi4yLTE2LjVjMy45LTEwLjMgOS41LTE5LjggMTYuNS0yOC4xbDExLjUtMTMuNy01LjYtMTdMMzkwLjUgMjQxek00ODggMzUyYTI0IDI0IDAgMSAxIC00OCAwIDI0IDI0IDAgMSAxIDQ4IDB6bS0yNCA1NmE1NiA1NiAwIDEgMCAwLTExMiA1NiA1NiAwIDEgMCAwIDExMnoiIGZpbGw9IiMwMDAwMDAiLz48L3N2Zz4=;" vertex="1" parent="1">
          <mxGeometry x="22.5" y="492" width="17.5" height="14" as="geometry" />
        </mxCell>
      </root>
    </mxGraphModel>
  </diagram>
</mxfile>
